<?xml version="1.0" encoding="UTF-8"?>
<svg width="5px" height="9px" viewBox="0 0 5 9" version="1.1" xmlns="http://www.w3.org/2000/svg" xmlns:xlink="http://www.w3.org/1999/xlink">
    <!-- Generator: sketchtool 52.3 (67297) - http://www.bohemiancoding.com/sketch -->
    <title>51C928F6-F02B-451E-802E-85DECAA69DBF</title>
    <desc>Created with sketchtool.</desc>
    <g id="Symbols" stroke="none" stroke-width="1" fill="none" fill-rule="evenodd">
        <g id="btn_arrow/right/blue3_5px" fill="#00B9E0">
            <path d="M0.700741196,9 L0.347045524,9 C0.272812216,8.97404519 0.203119128,8.93123523 0.143863179,8.87157012 C0.0696566674,8.7968512 0.0217022744,8.70568205 1.02244392e-11,8.6097019 L1.02245579e-11,8.36837492 C0.0217022538,8.27239739 0.0696566515,8.18122822 0.143863179,8.10650929 L3.70221328,4.52351621 L0.127263581,0.923466046 C0.0682259277,0.864020731 0.0258047339,0.794163126 0,0.71975442 L1.02245579e-11,0.362116824 C0.0258047339,0.287708137 0.0682259277,0.217850533 0.127263581,0.158405217 C0.337022133,-0.0528017392 0.677565392,-0.0528017392 0.887323944,0.158405217 L4.84255533,4.14073496 C4.94768612,4.2460876 5,4.38505275 5,4.52351621 C5,4.66197968 4.94768612,4.80044315 4.84255533,4.90579579 L0.903923541,8.87157012 C0.844667593,8.93123523 0.774974504,8.97404519 0.700741175,9 Z"></path>
        </g>
    </g>
</svg>